<svg viewBox="0 0 347.47 85.81" xmlns="http://www.w3.org/2000/svg" id="Layer_2">
  <g data-sanitized-data-name="Layer_2" data-name="Layer_2" id="Layer_2-2">
    <g id="Layer_1-2">
      <path d="M21.17,32.56c-2.28,0-4.24.84-5.88,2.52s-2.46,3.71-2.46,6.08.82,4.45,2.46,6.15c1.64,1.68,3.59,2.52,5.88,2.52,1.09,0,2.13-.13,3.1-.4.98-.28,1.71-.55,2.17-.83l.6-.42,4.1,8.4c-.32.24-.77.53-1.33.88-.57.33-1.87.79-3.9,1.38-2.03.59-4.2.9-6.52.9-5.14,0-9.66-1.8-13.56-5.42-3.89-3.63-5.83-7.96-5.83-13.02s1.94-9.47,5.83-13.13c3.9-3.67,8.42-5.5,13.56-5.5,2.32,0,4.46.27,6.42.81s3.34,1.09,4.17,1.65l1.17.81-4.1,8.27c-1.5-1.09-3.46-1.65-5.88-1.65Z"></path>
      <path d="M29.64,58.71V0h12.08v27.38h.13c3.14-3.14,6.48-4.71,10.04-4.71,1.72,0,3.44.23,5.15.69,1.71.45,3.34,1.15,4.92,2.1,1.57.96,2.84,2.31,3.81,4.06.98,1.75,1.48,3.79,1.48,6.1v23.08h-12.08v-19.79c0-1.82-.58-3.41-1.75-4.77-1.16-1.38-2.66-2.06-4.52-2.06s-3.47.71-4.96,2.13c-1.47,1.41-2.21,2.97-2.21,4.71v19.79h-12.09Z"></path>
      <path d="M68.35,58.71V23.69h12.08v5.04h.13c.09-.18.24-.4.44-.67.21-.28.65-.76,1.33-1.44.69-.68,1.42-1.29,2.19-1.83.78-.55,1.78-1.05,3-1.48,1.23-.43,2.49-.65,3.77-.65s2.61.18,3.88.54c1.28.36,2.21.72,2.81,1.08l.96.56-5.06,10.23c-1.5-1.28-3.59-1.92-6.27-1.92-1.46,0-2.72.32-3.77.96-1.04.64-1.78,1.42-2.21,2.33-.43.91-.74,1.68-.92,2.31-.18.64-.27,1.14-.27,1.5v18.44h-12.08v.02Z"></path>
      <path d="M99.22,54.54c-3.89-3.46-5.83-7.9-5.83-13.31s2.03-9.86,6.08-13.33c4.05-3.48,9.06-5.23,15.02-5.23s10.82,1.75,14.85,5.25c4.03,3.5,6.04,7.94,6.04,13.31s-1.97,9.81-5.92,13.29c-3.93,3.47-8.93,5.21-14.98,5.21s-11.37-1.73-15.27-5.19h0ZM108.57,35.29c-1.57,1.54-2.35,3.52-2.35,5.94s.75,4.39,2.25,5.92c1.51,1.52,3.5,2.27,5.96,2.27s4.3-.77,5.83-2.31c1.53-1.55,2.29-3.51,2.29-5.88s-.79-4.4-2.35-5.94c-1.57-1.54-3.49-2.31-5.77-2.31s-4.27.77-5.85,2.31h-.01Z"></path>
      <path d="M134.63,58.71V23.69h12.08v3.69h.13c3.14-3.14,6.48-4.71,10.04-4.71,1.72,0,3.44.23,5.15.69,1.71.45,3.34,1.15,4.92,2.1,1.57.96,2.84,2.31,3.81,4.06.98,1.75,1.48,3.79,1.48,6.1v23.08h-12.08v-19.79c0-1.82-.58-3.41-1.75-4.77-1.16-1.38-2.66-2.06-4.52-2.06s-3.47.71-4.96,2.13c-1.47,1.41-2.21,2.97-2.21,4.71v19.79h-12.09Z"></path>
      <path d="M176.62,54.54c-3.89-3.46-5.83-7.9-5.83-13.31s2.03-9.86,6.08-13.33c4.05-3.48,9.06-5.23,15.02-5.23s10.82,1.75,14.85,5.25c4.03,3.5,6.04,7.94,6.04,13.31s-1.97,9.81-5.92,13.29c-3.93,3.47-8.93,5.21-14.98,5.21s-11.37-1.73-15.27-5.19h0ZM185.98,35.29c-1.57,1.54-2.35,3.52-2.35,5.94s.75,4.39,2.25,5.92c1.51,1.52,3.5,2.27,5.96,2.27s4.3-.77,5.83-2.31c1.53-1.55,2.29-3.51,2.29-5.88s-.79-4.4-2.35-5.94c-1.57-1.54-3.49-2.31-5.77-2.31s-4.27.77-5.85,2.31h0Z"></path>
      <path d="M219.81,44.1c2.18,0,4.03.77,5.56,2.29s2.29,3.37,2.29,5.56-.77,3.97-2.29,5.5c-1.53,1.51-3.39,2.27-5.56,2.27s-3.97-.76-5.5-2.27c-1.52-1.53-2.27-3.36-2.27-5.5s.76-4.05,2.27-5.56c1.53-1.53,3.36-2.29,5.5-2.29Z"></path>
      <path d="M229.44,58.71V0h12.08v27.38h.13c3.14-3.14,6.48-4.71,10.04-4.71,1.72,0,3.44.23,5.15.69,1.71.45,3.34,1.15,4.92,2.1,1.57.96,2.84,2.31,3.81,4.06.98,1.75,1.48,3.79,1.48,6.1v23.08h-12.08v-19.79c0-1.82-.58-3.41-1.75-4.77-1.16-1.38-2.66-2.06-4.52-2.06s-3.47.71-4.96,2.13c-1.47,1.41-2.21,2.97-2.21,4.71v19.79h-12.09Z"></path>
      <path d="M279.54,23.69v16.65c0,3.47.52,5.94,1.56,7.4,1.05,1.45,2.83,2.17,5.33,2.17s4.27-.72,5.31-2.17c1.05-1.46,1.58-3.92,1.58-7.4v-16.65h12.08v19.58c0,5.83-1.52,10.04-4.54,12.6-3.03,2.57-7.84,3.85-14.44,3.85s-11.41-1.28-14.44-3.85-4.54-6.77-4.54-12.6v-19.58h12.1Z"></path>
      <path d="M342.55,28.06c3.28,3.6,4.92,7.99,4.92,13.19s-1.64,9.56-4.92,13.13-7.45,5.35-12.5,5.35c-4.64,0-8.46-1.66-11.46-4.98h-.15v3.96h-11.94V0h12.08v27.02c3-2.9,6.82-4.35,11.46-4.35,5.05,0,9.22,1.8,12.5,5.4h.01ZM332.37,47.15c1.51-1.53,2.27-3.5,2.27-5.92s-.79-4.4-2.35-5.94c-1.57-1.54-3.52-2.31-5.83-2.31s-4.2.77-5.77,2.31c-1.57,1.54-2.35,3.52-2.35,5.94s.76,4.32,2.27,5.88c1.53,1.54,3.48,2.31,5.85,2.31s4.42-.76,5.92-2.27h-.01Z"></path>
      <path d="M83.41,76.31l1.94-4.48h.73l-1,4.48h-1.67Z"></path>
      <path d="M95.25,85.81l-2.48-6.17-2.44,6.17-3.67-8.6h1.35l2.29,5.88,2.46-6.27,2.46,6.27,2.29-5.88h1.35l-3.63,8.6h.02Z"></path>
      <path d="M101.57,84.83h-1.23v-13h1.23v6.69c.25-.43.57-.78.96-1.06.42-.28.9-.42,1.44-.42s.98.08,1.33.23c.33.17.61.39.83.65.47.54.71,1.26.71,2.15v4.77h-1.23v-4.77c0-.5-.1-.92-.31-1.27-.24-.34-.62-.52-1.15-.52s-.93.08-1.25.23c-.33.18-.6.42-.79.71-.36.56-.54,1.37-.54,2.44v3.19-.02Z"></path>
      <path d="M116.62,80.85v.63h-6.71c.11.67.43,1.21.96,1.63.53.43,1.11.65,1.77.65.43,0,.85-.1,1.27-.31.39-.21.71-.48.98-.83h1.4c-.33.72-.82,1.29-1.46,1.71-.67.43-1.33.65-2,.65s-1.26-.1-1.73-.31c-.49-.21-.91-.49-1.27-.85-.79-.76-1.19-1.7-1.19-2.81s.4-2.03,1.19-2.81c.78-.78,1.71-1.17,2.81-1.17s1.98.38,2.79,1.13c.79.77,1.19,1.68,1.19,2.73v-.04ZM115.35,80.46c-.14-.65-.47-1.19-.98-1.63-.52-.42-1.09-.63-1.73-.63-1,0-1.79.45-2.35,1.33-.17.28-.29.58-.35.92h5.42,0Z"></path>
      <path d="M122.52,78.79c-.28-.26-.58-.4-.9-.4s-.57.09-.79.27c-.24.18-.43.4-.58.65-.28.52-.42,1.08-.42,1.71v3.81h-1.23v-7.63h1.23v1.58l.04-.31c.4-.96,1.03-1.44,1.9-1.44.26,0,.51.06.75.17v1.58h0Z"></path>
      <path d="M131.45,80.85v.63h-6.71c.11.67.43,1.21.96,1.63.53.43,1.11.65,1.77.65.43,0,.85-.1,1.27-.31.39-.21.71-.48.98-.83h1.4c-.33.72-.82,1.29-1.46,1.71-.67.43-1.33.65-2,.65s-1.26-.1-1.73-.31c-.49-.21-.91-.49-1.27-.85-.79-.76-1.19-1.7-1.19-2.81s.4-2.03,1.19-2.81c.78-.78,1.71-1.17,2.81-1.17s1.98.38,2.79,1.13c.79.77,1.19,1.68,1.19,2.73v-.04ZM130.18,80.46c-.14-.65-.47-1.19-.98-1.63-.52-.42-1.09-.63-1.73-.63-1,0-1.79.45-2.35,1.33-.17.28-.29.58-.35.92h5.42-.01Z"></path>
      <path d="M137.18,78.33v-1.13h1.9v-2.96h1.21v2.96h1.9v1.13h-1.9v6.5h-1.21v-6.5h-1.9Z"></path>
      <path d="M145.05,74.56c.15.16.23.33.23.54s-.08.41-.23.56c-.14.16-.31.23-.52.23s-.41-.07-.56-.23c-.16-.15-.23-.34-.23-.56s.07-.39.23-.54c.15-.14.34-.21.56-.21s.38.07.52.21ZM145.13,84.83h-1.21v-7.63h1.21v7.63Z"></path>
      <path d="M157.47,84.79v-4.75c0-.79-.25-1.34-.75-1.67-.18-.11-.45-.17-.79-.17-.36,0-.7.1-1.02.31-.31.21-.55.47-.73.79-.07.14-.14.28-.21.42v5.06h-1.21v-4.75c0-.79-.25-1.34-.75-1.67-.17-.11-.43-.17-.79-.17s-.7.1-1,.31c-.32.21-.57.47-.75.79-.24.43-.39.96-.46,1.58v3.9h-1.23v-7.63h1.23v1.21c.22-.39.51-.7.85-.94.4-.29.86-.44,1.4-.44s.95.08,1.27.25c.33.17.6.39.81.67.13.17.23.35.31.54.23-.42.54-.76.92-1.02.39-.29.84-.44,1.38-.44s.97.08,1.29.25c.32.17.59.39.81.67.42.54.63,1.25.63,2.13v4.75h-1.21v.02Z"></path>
      <path d="M168.46,80.85v.63h-6.71c.11.67.43,1.21.96,1.63.53.43,1.11.65,1.77.65.43,0,.85-.1,1.27-.31.39-.21.71-.48.98-.83h1.4c-.33.72-.82,1.29-1.46,1.71-.67.43-1.33.65-2,.65s-1.26-.1-1.73-.31c-.49-.21-.91-.49-1.27-.85-.79-.76-1.19-1.7-1.19-2.81s.4-2.03,1.19-2.81c.78-.78,1.71-1.17,2.81-1.17s1.98.38,2.79,1.13c.79.77,1.19,1.68,1.19,2.73v-.04ZM167.19,80.46c-.14-.65-.47-1.19-.98-1.63-.52-.42-1.09-.63-1.73-.63-1,0-1.79.45-2.35,1.33-.17.28-.29.58-.35.92h5.42,0Z"></path>
      <path d="M184.82,84.79v-4.75c0-.79-.25-1.34-.75-1.67-.18-.11-.45-.17-.79-.17-.36,0-.7.1-1.02.31-.31.21-.55.47-.73.79-.07.14-.14.28-.21.42v5.06h-1.21v-4.75c0-.79-.25-1.34-.75-1.67-.17-.11-.43-.17-.79-.17s-.7.1-1,.31c-.32.21-.57.47-.75.79-.24.43-.39.96-.46,1.58v3.9h-1.23v-7.63h1.23v1.21c.22-.39.51-.7.85-.94.4-.29.86-.44,1.4-.44s.95.08,1.27.25c.33.17.6.39.81.67.13.17.23.35.31.54.23-.42.54-.76.92-1.02.39-.29.84-.44,1.38-.44s.97.08,1.29.25c.32.17.59.39.81.67.42.54.63,1.25.63,2.13v4.75h-1.21v.02Z"></path>
      <path d="M195.81,80.85v.63h-6.71c.11.67.43,1.21.96,1.63.53.43,1.11.65,1.77.65.43,0,.85-.1,1.27-.31.39-.21.71-.48.98-.83h1.4c-.33.72-.82,1.29-1.46,1.71-.67.43-1.33.65-2,.65s-1.26-.1-1.73-.31c-.49-.21-.91-.49-1.27-.85-.79-.76-1.19-1.7-1.19-2.81s.4-2.03,1.19-2.81c.78-.78,1.71-1.17,2.81-1.17s1.98.38,2.79,1.13c.79.77,1.19,1.68,1.19,2.73v-.04ZM194.54,80.46c-.14-.65-.47-1.19-.98-1.63-.52-.42-1.09-.63-1.73-.63-1,0-1.79.45-2.35,1.33-.17.28-.29.58-.35.92h5.42,0Z"></path>
      <path d="M205.25,80.85v.63h-6.71c.11.67.43,1.21.96,1.63.53.43,1.11.65,1.77.65.43,0,.85-.1,1.27-.31.39-.21.71-.48.98-.83h1.4c-.33.72-.82,1.29-1.46,1.71-.67.43-1.33.65-2,.65s-1.26-.1-1.73-.31c-.49-.21-.91-.49-1.27-.85-.79-.76-1.19-1.7-1.19-2.81s.4-2.03,1.19-2.81c.78-.78,1.71-1.17,2.81-1.17s1.98.38,2.79,1.13c.79.77,1.19,1.68,1.19,2.73v-.04ZM203.98,80.46c-.14-.65-.47-1.19-.98-1.63-.52-.42-1.09-.63-1.73-.63-1,0-1.79.45-2.35,1.33-.17.28-.29.58-.35.92h5.42,0Z"></path>
      <path d="M206.3,78.33v-1.13h1.9v-2.96h1.21v2.96h1.9v1.13h-1.9v6.5h-1.21v-6.5h-1.9Z"></path>
      <path d="M214.06,83.75c.29.21.68.31,1.17.31,1.11,0,1.67-.42,1.67-1.25,0-.48-.4-.86-1.19-1.13-.33-.11-.7-.21-1.08-.31-.39-.08-.75-.2-1.08-.35-.41-.18-.7-.41-.9-.69s-.29-.61-.29-1c0-.76.26-1.33.79-1.71.54-.39,1.18-.58,1.92-.58s1.34.15,1.83.44c.48.31.82.85,1,1.63h-1.31c-.14-.43-.34-.71-.6-.85-.25-.14-.57-.21-.96-.21s-.7.08-.96.25c-.28.17-.42.42-.42.75s.11.6.33.77c.22.16.5.29.83.4.33.1.7.19,1.1.27.38.1.73.22,1.08.38.79.38,1.19.97,1.19,1.79s-.3,1.43-.9,1.83c-.29.2-.62.34-.98.44-.35.09-.73.15-1.15.15-1.77,0-2.79-.78-3.06-2.35h1.29c.13.49.34.83.67,1.04v-.02Z"></path>
      <path d="M223.64,78.33v-1.13h1.9v-2.96h1.21v2.96h1.9v1.13h-1.9v6.5h-1.21v-6.5h-1.9Z"></path>
      <path d="M236.37,81.02c0-.73-.26-1.38-.77-1.94-.52-.55-1.16-.83-1.92-.83s-1.41.28-1.92.83c-.52.56-.77,1.2-.77,1.94s.26,1.39.77,1.94c.51.56,1.15.83,1.92.83s1.4-.28,1.92-.83c.51-.55.77-1.2.77-1.94ZM237.57,84.83h-1.21v-1.29c-.07.08-.14.17-.21.25-.74.81-1.64,1.21-2.69,1.21s-1.93-.4-2.65-1.21c-.71-.78-1.06-1.7-1.06-2.77s.35-1.99,1.06-2.77c.72-.8,1.6-1.21,2.65-1.21s1.95.41,2.69,1.21c.07.08.14.17.21.25v-1.29h1.21v7.63h0Z"></path>
      <path d="M241.28,83.75c.29.21.68.31,1.17.31,1.11,0,1.67-.42,1.67-1.25,0-.48-.4-.86-1.19-1.13-.33-.11-.7-.21-1.08-.31-.39-.08-.75-.2-1.08-.35-.41-.18-.7-.41-.9-.69s-.29-.61-.29-1c0-.76.26-1.33.79-1.71.54-.39,1.18-.58,1.92-.58s1.34.15,1.83.44c.48.31.82.85,1,1.63h-1.31c-.14-.43-.34-.71-.6-.85-.25-.14-.57-.21-.96-.21s-.7.08-.96.25c-.28.17-.42.42-.42.75s.11.6.33.77c.22.16.5.29.83.4.33.1.7.19,1.1.27.38.1.73.22,1.08.38.79.38,1.19.97,1.19,1.79s-.3,1.43-.9,1.83c-.29.2-.62.34-.98.44-.35.09-.73.15-1.15.15-1.77,0-2.79-.78-3.06-2.35h1.29c.13.49.34.83.67,1.04v-.02Z"></path>
      <path d="M246.19,78.33v-1.13h1.9v-2.96h1.21v2.96h1.9v1.13h-1.9v6.5h-1.21v-6.5h-1.9Z"></path>
      <path d="M260.28,80.85v.63h-6.71c.11.67.43,1.21.96,1.63.53.43,1.11.65,1.77.65.43,0,.85-.1,1.27-.31.39-.21.71-.48.98-.83h1.4c-.33.72-.82,1.29-1.46,1.71-.67.43-1.33.65-2,.65s-1.26-.1-1.73-.31c-.49-.21-.91-.49-1.27-.85-.79-.76-1.19-1.7-1.19-2.81s.4-2.03,1.19-2.81c.78-.78,1.71-1.17,2.81-1.17s1.98.38,2.79,1.13c.79.77,1.19,1.68,1.19,2.73v-.04ZM259.01,80.46c-.14-.65-.47-1.19-.98-1.63-.52-.42-1.09-.63-1.73-.63-1,0-1.79.45-2.35,1.33-.17.28-.29.58-.35.92h5.42,0Z"></path>
      <path d="M264.08,71.83l-1.94,4.48h-.73l1-4.48h1.67Z"></path>
    </g>
  </g>
</svg>