<svg width="614" height="124" viewBox="0 0 614 124" fill="none" xmlns="http://www.w3.org/2000/svg">
<path d="M169.823 54.355V1.54088H179.255L217.434 42.8107L216.379 43.113C216.127 41.5033 215.911 39.8675 215.737 38.2077C215.561 36.548 215.422 34.8621 215.322 33.1545C215.222 31.4425 215.135 29.7088 215.056 27.9468C214.982 26.187 214.932 24.4272 214.909 22.6674C214.882 20.9032 214.869 19.1434 214.869 17.3836V1.54088H224.602V54.355H215.019L176.691 13.6877L178.048 13.1592C178.2 14.5666 178.34 15.9631 178.464 17.3466C178.588 18.7279 178.727 20.1136 178.879 21.4971C179.029 22.8784 179.155 24.2488 179.255 25.6062C179.355 26.9658 179.432 28.3493 179.484 29.7567C179.532 31.1663 179.558 32.552 179.558 33.9072V54.355H169.823Z" fill="white"/>
<path d="M255.158 45.7534C258.228 45.7534 261.019 45.3009 263.533 44.396C266.048 43.4889 268.236 42.2207 270.101 40.5849C271.958 38.9512 273.405 37.05 274.438 34.8878C275.467 32.7277 275.985 30.3871 275.985 27.8703C275.985 25.3578 275.467 23.0172 274.438 20.8549C273.405 18.6927 271.958 16.7936 270.101 15.16C268.236 13.5242 266.048 12.2538 263.533 11.3467C261.019 10.4418 258.228 9.9893 255.158 9.9893C252.141 9.9893 249.359 10.4418 246.823 11.3467C244.282 12.2538 242.094 13.5111 240.255 15.1187C238.422 16.7306 237.001 18.6144 235.994 20.781C234.989 22.9432 234.487 25.3056 234.487 27.8703C234.487 30.3871 234.989 32.7386 235.994 34.9248C237.001 37.1131 238.422 39.0122 240.255 40.6241C242.094 42.2316 244.282 43.4889 246.823 44.396C249.359 45.3009 252.141 45.7534 255.158 45.7534ZM255.158 55.1094C250.732 55.1094 246.644 54.4155 242.898 53.0363C239.153 51.6506 235.894 49.7255 233.127 47.2609C230.36 44.8006 228.222 41.9162 226.714 38.6228C225.205 35.3294 224.45 31.7445 224.45 27.8703C224.45 23.9982 225.205 20.4155 226.714 17.1199C228.222 13.8265 230.36 10.9443 233.127 8.47964C235.894 6.01503 239.153 4.09207 242.898 2.7064C246.644 1.32509 250.732 0.633337 255.158 0.633337C259.637 0.633337 263.749 1.32509 267.495 2.7064C271.243 4.09207 274.486 6.01503 277.229 8.47964C279.97 10.9443 282.108 13.8265 283.642 17.1199C285.175 20.4155 285.943 23.9982 285.943 27.8703C285.943 31.7445 285.175 35.3294 283.642 38.6228C282.108 41.9162 279.97 44.8006 277.229 47.2609C274.486 49.7255 271.243 51.6506 267.495 53.0363C263.749 54.4155 259.637 55.1094 255.158 55.1094Z" fill="white"/>
<path d="M295.376 45.5291H314.917C317.031 45.5291 318.88 45.2637 320.464 44.7351C322.047 44.2065 323.268 43.4016 324.123 42.3205C324.98 41.2394 325.406 39.9212 325.406 38.3593C325.406 36.6495 324.88 35.2921 323.823 34.285C322.765 33.28 321.395 32.5382 319.711 32.0596C318.023 31.5832 316.303 31.3439 314.541 31.3439H295.376V45.5291ZM295.376 22.8907H313.712C315.371 22.8907 316.881 22.6297 318.239 22.0989C319.598 21.5703 320.666 20.8307 321.447 19.8736C322.226 18.9208 322.613 17.7853 322.613 16.4801C322.613 14.3657 321.708 12.8191 319.898 11.8402C318.088 10.8591 315.774 10.3675 312.957 10.3675H295.376V22.8907ZM285.794 54.3564V1.54016H313.183C317.41 1.54016 320.955 2.05789 323.823 3.0868C326.69 4.11789 328.852 5.61232 330.311 7.57662C331.769 9.53656 332.498 11.9272 332.498 14.7442C332.498 17.6091 331.632 20.052 329.896 22.0619C328.16 24.0741 325.608 25.5076 322.237 26.3625L322.539 24.855C324.801 25.3597 326.916 26.1863 328.878 27.3457C330.84 28.5008 332.4 30.0214 333.557 31.9095C334.712 33.7955 335.291 36.0469 335.291 38.6617C335.291 41.6288 334.723 44.1195 333.594 46.1295C332.461 48.1438 330.903 49.7513 328.915 50.9608C326.927 52.1681 324.714 53.036 322.276 53.5625C319.835 54.0911 317.358 54.3564 314.843 54.3564H285.794Z" fill="white"/>
<path d="M335.137 54.355V1.54088H344.948V45.3014H376.938V54.355H335.137Z" fill="white"/>
<path d="M381.467 22.9697H414.666V31.721H381.467V22.9697ZM376.333 54.355V1.54087H418.514V10.4422H385.994V45.4515H418.817V54.355H376.333Z" fill="white"/>
<path d="M180.764 111.028L184.31 102.501H213.661L215.699 111.028H180.764ZM169.824 122.572L194.268 69.756H204.379L228.675 122.572H218.264L202.871 89.2989C202.469 88.394 202.043 87.4129 201.588 86.3535C201.135 85.3007 200.696 84.2435 200.268 83.1863C199.839 82.1291 199.426 81.061 199.023 79.9821C198.619 78.8966 198.266 77.8546 197.966 76.8475L200.305 76.7713C199.954 77.8807 199.574 78.988 199.173 80.093C198.771 81.2002 198.345 82.2814 197.892 83.3364C197.44 84.3936 196.985 85.4377 196.535 86.4666C196.08 87.4999 195.628 88.5179 195.175 89.5229L179.857 122.572H169.824Z" fill="white"/>
<path d="M235.313 114.951L234.561 113.518H250.706C253.975 113.518 256.792 113.065 259.157 112.158C261.521 111.253 263.483 110.022 265.043 108.462C266.601 106.905 267.76 105.08 268.513 102.991C269.268 100.905 269.644 98.6278 269.644 96.1631C269.644 93.7486 269.268 91.4993 268.513 89.411C267.76 87.3249 266.601 85.4868 265.043 83.9032C263.483 82.3174 261.521 81.0731 259.157 80.1682C256.792 79.2632 253.975 78.8108 250.706 78.8108H234.332L235.313 77.5274V114.951ZM225.505 122.571V69.7572H251.084C255.659 69.7572 259.748 70.4337 263.344 71.7911C266.94 73.1507 269.972 75.0366 272.437 77.4512C274.902 79.8658 276.764 82.6698 278.019 85.8653C279.276 89.0586 279.907 92.4912 279.907 96.1631C279.907 99.8851 279.276 103.331 278.019 106.5C276.764 109.667 274.889 112.458 272.398 114.875C269.909 117.29 266.879 119.176 263.305 120.533C259.735 121.893 255.659 122.571 251.084 122.571H225.505Z" fill="white"/>
<path d="M294.317 122.571L270.85 69.7572H281.489L294.393 99.5588C294.744 100.514 295.209 101.634 295.79 102.917C296.366 104.201 296.982 105.571 297.637 107.029C298.289 108.488 298.894 109.946 299.447 111.405C300.001 112.865 300.504 114.246 300.956 115.554H298.542C299.044 113.998 299.662 112.284 300.391 110.424C301.117 108.565 301.874 106.702 302.655 104.843C303.434 102.981 304.15 101.269 304.804 99.7089L316.801 69.7572H327.667L304.578 122.571H294.317Z" fill="white"/>
<path d="M329.78 91.1849H362.979V99.9361H329.78V91.1849ZM324.648 122.572V69.756H366.828V78.6573H334.307V113.669H367.13V122.572H324.648Z" fill="white"/>
<path d="M368.936 122.571V69.7572H378.37L416.549 111.027L415.491 111.329C415.239 109.722 415.024 108.084 414.85 106.424C414.673 104.764 414.534 103.081 414.434 101.371C414.334 99.6589 414.247 97.9251 414.171 96.1631C414.095 94.4033 414.045 92.6435 414.021 90.8837C413.995 89.1217 413.982 87.3619 413.982 85.6021V69.7572H423.716V122.571H414.132L375.803 81.9041L377.16 81.3755C377.315 82.7851 377.45 84.1794 377.576 85.5629C377.7 86.9464 377.841 88.3299 377.991 89.7134C378.141 91.0969 378.268 92.4673 378.37 93.8247C378.47 95.1843 378.544 96.5656 378.594 97.9752C378.644 99.3826 378.672 100.768 378.672 102.126V122.571H368.936Z" fill="white"/>
<path d="M440.693 122.571V78.8108H421.829V69.7572H469.892V78.8108H450.499V122.571H440.693Z" fill="white"/>
<path d="M492.753 123.024C487.721 123.024 483.295 121.969 479.475 119.855C475.651 117.742 472.655 114.849 470.495 111.179C468.331 107.508 467.248 103.331 467.248 98.654V69.6812H477.132V98.2777C477.132 101.295 477.826 103.973 479.207 106.313C480.591 108.652 482.477 110.499 484.867 111.856C487.256 113.215 489.886 113.896 492.753 113.896C495.87 113.896 498.648 113.215 501.091 111.856C503.529 110.499 505.439 108.652 506.825 106.313C508.206 103.973 508.9 101.295 508.9 98.2777V69.6812H518.406V98.654C518.406 103.331 517.325 107.508 515.163 111.179C513.001 114.849 510.005 117.742 506.183 119.855C502.359 121.969 497.882 123.024 492.753 123.024Z" fill="white"/>
<path d="M558.85 122.571L542.174 98.7279L552.511 96.8441L570.694 122.647L558.85 122.571ZM530.93 94.9581H548.587C550.249 94.9581 551.782 94.5796 553.188 93.8247C554.597 93.0699 555.704 92.054 556.509 90.7684C557.314 89.485 557.716 88.0667 557.716 86.507C557.716 84.9974 557.288 83.6509 556.435 82.4697C555.578 81.2863 554.41 80.3444 552.924 79.6396C551.441 78.9348 549.82 78.5824 548.06 78.5824H530.93V94.9581ZM521.348 122.571V69.7572H549.944C553.416 69.7572 556.483 70.4729 559.15 71.9064C561.815 73.3378 563.942 75.3021 565.526 77.7906C567.109 80.2835 567.903 83.1114 567.903 86.2786C567.903 89.4981 567.059 92.4043 565.376 94.9929C563.69 97.5858 561.438 99.648 558.624 101.182C555.804 102.715 552.685 103.483 549.268 103.483H530.93V122.571H521.348Z" fill="white"/>
<path d="M576.652 91.1849H609.849V99.9361H576.652V91.1849ZM571.521 122.572V69.756H613.702V78.6573H581.179V113.669H614V122.572H571.521Z" fill="white"/>
<path d="M0 122.691H15.151V0.000171369H0V122.691ZM122.691 94.2363V57.1344H64.0104C74.9782 78.6568 97.088 93.5576 122.691 94.2363ZM56.6404 0.000171369V26.4344C56.6404 33.3497 57.6868 40.0235 59.6163 46.3145H122.691V0.000171369H56.6404ZM25.9709 73.8429V122.691H72.6572C52.4247 111.747 36.0056 94.617 25.9709 73.8429ZM45.8205 26.4344V0.000171369H25.9709V26.4344C25.9709 73.5514 59.2182 113.029 103.479 122.691H122.691V105.078C80.1402 104.103 45.8205 69.2138 45.8205 26.4344Z" fill="white"/>
</svg>
